<svg xmlns="http://www.w3.org/2000/svg" style="display: none;">
  <defs>
    <!-- Info/Help Icon -->
    <symbol id="icon-info" viewBox="0 0 24 24">
      <path d="M12 2C6.48 2 2 6.48 2 12s4.48 10 10 10 10-4.48 10-10S17.52 2 12 2zm1 15h-2v-6h2v6zm0-8h-2V7h2v2z" fill="currentColor"/>
    </symbol>
    
    <!-- Help/Question Mark -->
    <symbol id="icon-help" viewBox="0 0 24 24">
      <path d="M12 2C6.48 2 2 6.48 2 12s4.48 10 10 10 10-4.48 10-10S17.52 2 12 2zm1 17h-2v-2h2v2zm2.07-7.75l-.9.92C13.45 12.9 13 13.5 13 15h-2v-.5c0-1.1.45-2.1 1.17-2.83l1.24-1.26c.37-.36.59-.86.59-1.41 0-1.1-.9-2-2-2s-2 .9-2 2H8c0-2.21 1.79-4 4-4s4 1.79 4 4c0 .88-.36 1.68-.93 2.25z" fill="currentColor"/>
    </symbol>
    
    <!-- About Icon -->
    <symbol id="icon-about" viewBox="0 0 24 24">
      <circle cx="12" cy="12" r="10" fill="none" stroke="currentColor" stroke-width="1.5"/>
      <circle cx="12" cy="9" r="1.5" fill="currentColor"/>
      <path d="M12 13v4M10 13h4" stroke="currentColor" stroke-width="1.5" stroke-linecap="round"/>
      <circle cx="12" cy="17" r="1" fill="currentColor"/>
    </symbol>
  </defs>
</svg>