<svg xmlns="http://www.w3.org/2000/svg" style="display: none;">
  <defs>
    <!-- Loading/Spinner Icon -->
    <symbol id="icon-loading" viewBox="0 0 24 24">
      <circle cx="12" cy="12" r="10" fill="none" stroke="currentColor" stroke-width="2" opacity="0.2"/>
      <path d="M12 2a10 10 0 0 1 10 10" fill="none" stroke="currentColor" stroke-width="2" stroke-linecap="round">
        <animateTransform
          attributeName="transform"
          type="rotate"
          from="0 12 12"
          to="360 12 12"
          dur="1s"
          repeatCount="indefinite"
        />
      </path>
    </symbol>
    
    <!-- Refresh/Reload Icon -->
    <symbol id="icon-refresh" viewBox="0 0 24 24">
      <path d="M17.65 6.35C16.2 4.9 14.21 4 12 4c-4.42 0-7.99 3.58-7.99 8s3.57 8 7.99 8c3.73 0 6.84-2.55 7.73-6h-2.08c-.82 2.33-3.04 4-5.65 4-3.31 0-6-2.69-6-6s2.69-6 6-6c1.66 0 3.14.69 4.22 1.78L13 11h7V4l-2.35 2.35z" fill="currentColor"/>
    </symbol>
  </defs>
</svg>