<svg xmlns="http://www.w3.org/2000/svg" style="display: none;">
  <defs>
    <!-- Settings/Gear Icon -->
    <symbol id="icon-settings" viewBox="0 0 24 24">
      <path d="M19.43 12.98c.04-.32.07-.64.07-.98s-.03-.66-.07-.98l2.11-1.65c.19-.15.24-.42.12-.64l-2-3.46c-.12-.22-.39-.3-.61-.22l-2.49 1c-.52-.4-1.08-.73-1.69-.98l-.38-2.65C14.46 2.18 14.25 2 14 2h-4c-.25 0-.46.18-.49.42l-.38 2.65c-.61.25-1.17.59-1.69.98l-2.49-1c-.23-.09-.49 0-.61.22l-2 3.46c-.13.22-.07.49.12.64l2.11 1.65c-.04.32-.07.65-.07.98s.03.66.07.98l-2.11 1.65c-.19.15-.24.42-.12.64l2 3.46c.12.22.39.3.61.22l2.49-1c.52.4 1.08.73 1.69.98l.38 2.65c.03.24.24.42.49.42h4c.25 0 .46-.18.49-.42l.38-2.65c.61-.25 1.17-.59 1.69-.98l2.49 1c.23.09.49 0 .61-.22l2-3.46c.12-.22.07-.49-.12-.64l-2.11-1.65zM12 15.5c-1.93 0-3.5-1.57-3.5-3.5s1.57-3.5 3.5-3.5 3.5 1.57 3.5 3.5-1.57 3.5-3.5 3.5z" fill="currentColor"/>
    </symbol>
    
    <!-- Grid/Overlay Icon -->
    <symbol id="icon-grid" viewBox="0 0 24 24">
      <path d="M4 4h4v4H4zM10 4h4v4h-4zM16 4h4v4h-4zM4 10h4v4H4zM10 10h4v4h-4zM16 10h4v4h-4zM4 16h4v4H4zM10 16h4v4h-4zM16 16h4v4h-4z" fill="currentColor"/>
    </symbol>
    
    <!-- Composition Icon -->
    <symbol id="icon-composition" viewBox="0 0 24 24">
      <rect x="3" y="3" width="18" height="18" rx="2" ry="2" fill="none" stroke="currentColor" stroke-width="1.5"/>
      <line x1="3" y1="9" x2="21" y2="9" stroke="currentColor" stroke-width="1" stroke-dasharray="2,2"/>
      <line x1="3" y1="15" x2="21" y2="15" stroke="currentColor" stroke-width="1" stroke-dasharray="2,2"/>
      <line x1="9" y1="3" x2="9" y2="21" stroke="currentColor" stroke-width="1" stroke-dasharray="2,2"/>
      <line x1="15" y1="3" x2="15" y2="21" stroke="currentColor" stroke-width="1" stroke-dasharray="2,2"/>
      <circle cx="9" cy="9" r="2" fill="currentColor" opacity="0.5"/>
      <circle cx="15" cy="9" r="2" fill="currentColor" opacity="0.5"/>
      <circle cx="9" cy="15" r="2" fill="currentColor" opacity="0.5"/>
      <circle cx="15" cy="15" r="2" fill="currentColor" opacity="0.5"/>
    </symbol>
  </defs>
</svg>