<svg xmlns="http://www.w3.org/2000/svg" style="display: none;">
  <defs>
    <!-- Switch Camera Icon -->
    <symbol id="icon-switch-camera" viewBox="0 0 24 24">
      <path d="M20 4h-3.17L15 2H9L7.17 4H4c-1.1 0-2 .9-2 2v12c0 1.1.9 2 2 2h16c1.1 0 2-.9 2-2V6c0-1.1-.9-2-2-2zm-5 11.5V13H9v2.5L5.5 12 9 8.5V11h6V8.5l3.5 3.5-3.5 3.5z" fill="currentColor"/>
    </symbol>
    
    <!-- Camera Icon -->
    <symbol id="icon-camera" viewBox="0 0 24 24">
      <path d="M12 15.2c1.77 0 3.2-1.43 3.2-3.2 0-1.77-1.43-3.2-3.2-3.2-1.77 0-3.2 1.43-3.2 3.2 0 1.77 1.43 3.2 3.2 3.2z" fill="currentColor"/>
      <path d="M9 2L7.17 4H4c-1.1 0-2 .9-2 2v12c0 1.1.9 2 2 2h16c1.1 0 2-.9 2-2V6c0-1.1-.9-2-2-2h-3.17L15 2H9zm3 15c-2.76 0-5-2.24-5-5s2.24-5 5-5 5 2.24 5 5-2.24 5-5 5z" fill="currentColor"/>
    </symbol>
    
    <!-- Front/Back Camera Arrows -->
    <symbol id="icon-camera-switch" viewBox="0 0 24 24">
      <path d="M16 7l-1.41 1.41L16.17 11H8v2h8.17l-1.58 1.58L16 17l4-4-4-4z" fill="currentColor"/>
      <path d="M20 18h-8v2h8c1.1 0 2-.9 2-2V8c0-1.1-.9-2-2-2h-8v2h8v10z" fill="currentColor"/>
      <path d="M10 16H4V6h6V4H4c-1.1 0-2 .9-2 2v10c0 1.1.9 2 2 2h6v-2z" fill="currentColor"/>
    </symbol>
  </defs>
</svg>