<svg xmlns="http://www.w3.org/2000/svg" style="display: none;">
  <defs>
    <!-- Upload Icon -->
    <symbol id="icon-upload" viewBox="0 0 24 24">
      <path d="M19.35 10.04C18.67 6.59 15.64 4 12 4 9.11 4 6.6 5.64 5.35 8.04 2.34 8.36 0 10.91 0 14c0 3.31 2.69 6 6 6h13c2.76 0 5-2.24 5-5 0-2.64-2.05-4.78-4.65-4.96zM14 13v4h-4v-4H7l5-5 5 5h-3z" fill="currentColor"/>
    </symbol>
    
    <!-- Download Icon -->
    <symbol id="icon-download" viewBox="0 0 24 24">
      <path d="M19 9h-4V3H9v6H5l7 7 7-7zM5 18v2h14v-2H5z" fill="currentColor"/>
    </symbol>
    
    <!-- File Upload Icon -->
    <symbol id="icon-file-upload" viewBox="0 0 24 24">
      <path d="M14 2H6c-1.1 0-1.99.9-1.99 2L4 20c0 1.1.89 2 1.99 2H18c1.1 0 2-.9 2-2V8l-6-6zm4 18H6V4h7v5h5v11z" fill="currentColor"/>
      <path d="M8 15.01h8v2H8zm0-4h8v2H8zm0-4h5v2H8z" fill="currentColor"/>
      <path d="M14 9l-3 3-3-3h6z" fill="currentColor"/>
    </symbol>
  </defs>
</svg>